<svg width="101" height="98" viewBox="0 0 101 98" fill="none" xmlns="http://www.w3.org/2000/svg">
<circle cx="71.1227" cy="49.2282" r="29.2282" fill="#7542E5"/>
<circle cx="34.2282" cy="50.7711" r="29.2282" fill="#CB9EFF"/>
<circle cx="34.2282" cy="50.7711" r="28.4487" stroke="#CB9EFF" stroke-width="1.55885"/>
<circle cx="71.1227" cy="49.2282" r="28.4487" stroke="#7542E5" stroke-width="1.55885"/>
<rect x="60.998" y="32.1279" width="2.32247" height="13.4187" transform="rotate(90 60.998 32.1279)" fill="#7542E5"/>
<rect x="64.0957" y="37.0342" width="2.32247" height="19.612" transform="rotate(90 64.0957 37.0342)" fill="#7542E5"/>
<rect x="65.6426" y="41.6758" width="2.32247" height="22.7086" rx="1.16123" transform="rotate(90 65.6426 41.6758)" fill="#7542E5"/>
<rect x="65.6426" y="46.582" width="2.32247" height="22.7086" transform="rotate(90 65.6426 46.582)" fill="#7542E5"/>
<rect x="65.6426" y="51.2227" width="2.32247" height="22.7086" transform="rotate(90 65.6426 51.2227)" fill="#7542E5"/>
<rect x="65.125" y="56.1309" width="2.32247" height="21.6764" rx="1.16123" transform="rotate(90 65.125 56.1309)" fill="#7542E5"/>
<rect x="63.5781" y="60.7715" width="2.32247" height="18.0636" transform="rotate(90 63.5781 60.7715)" fill="#7542E5"/>
<rect x="60.4805" y="65.6768" width="2.32247" height="11.6123" transform="rotate(90 60.4805 65.6768)" fill="#7542E5"/>
</svg>
