<svg width="15" height="15" viewBox="0 0 15 15" fill="none" xmlns="http://www.w3.org/2000/svg">
<path d="M0.0185299 13.6645L0.597856 10.4635C0.671002 10.0545 0.863134 9.6805 1.15182 9.3825L9.73537 0.5805C10.4903 -0.1925 11.7181 -0.1945 12.4759 0.5805L14.0637 2.2085C14.8186 2.9835 14.8186 4.2435 14.0637 5.0185L5.47725 13.8215C5.18856 14.1165 4.8238 14.3125 4.42588 14.3875L1.30299 14.9815C1.23472 14.9935 1.1684 15.0005 1.10208 15.0005C0.812419 15.0005 0.531534 14.8835 0.322822 14.6695C0.0663195 14.4055 -0.0477905 14.0305 0.0185299 13.6645ZM12.1639 5.1965L13.2952 4.0365L13.2942 3.1885L11.5192 1.3675L10.6921 1.3685L9.5608 2.5285L12.1639 5.1965ZM4.20449 13.1585C4.36053 13.1285 4.5039 13.0515 4.61704 12.9345L11.3007 6.0815L8.69864 3.4135L2.01496 10.2655C1.90085 10.3835 1.82575 10.5305 1.79551 10.6915L1.33323 13.2485L1.70871 13.6335L4.20449 13.1585Z" fill="#0060DF"/>
</svg>
