
<svg width="15" height="15" viewBox="0 0 15 15" fill="none" xmlns="http://www.w3.org/2000/svg">
<path d="M0.0175533 13.6645L0.596879 10.4635C0.670026 10.0545 0.862158 9.6805 1.15084 9.3825L9.7344 0.5805C10.4893 -0.1925 11.7172 -0.1945 12.475 0.5805L14.0627 2.2085C14.8176 2.9835 14.8176 4.2435 14.0627 5.0185L5.47627 13.8215C5.18758 14.1165 4.82282 14.3125 4.4249 14.3875L1.30202 14.9815C1.23374 14.9935 1.16742 15.0005 1.1011 15.0005C0.811442 15.0005 0.530558 14.8835 0.321845 14.6695C0.0653429 14.4055 -0.0487671 14.0305 0.0175533 13.6645ZM12.1629 5.1965L13.2942 4.0365L13.2932 3.1885L11.5182 1.3675L10.6912 1.3685L9.55982 2.5285L12.1629 5.1965ZM4.20351 13.1585C4.35956 13.1285 4.50293 13.0515 4.61606 12.9345L11.2997 6.0815L8.69766 3.4135L2.01398 10.2655C1.89987 10.3835 1.82477 10.5305 1.79454 10.6915L1.33225 13.2485L1.70774 13.6335L4.20351 13.1585Z" fill="#00DDFF"/>
</svg>
