<svg width="191" height="148" viewBox="0 0 191 148" fill="none" xmlns="http://www.w3.org/2000/svg">
<path d="M0 0H183C187.418 0 191 3.58172 191 8V140C191 144.418 187.418 148 183 148H0V0Z" fill="#42414D"/>
<circle cx="113.947" cy="73.2283" r="29.2282" fill="#AB71FF"/>
<circle cx="77.0523" cy="74.7713" r="29.2282" fill="#E7DFFF"/>
<circle cx="77.0523" cy="74.7713" r="28.4487" stroke="#E7DFFF" stroke-width="1.55885"/>
<circle cx="113.947" cy="73.2283" r="28.4487" stroke="#AB71FF" stroke-width="1.55885"/>
<rect x="103.822" y="56.1281" width="2.32247" height="13.4187" transform="rotate(90 103.822 56.1281)" fill="#AB71FF"/>
<rect x="106.92" y="61.0344" width="2.32247" height="19.612" transform="rotate(90 106.92 61.0344)" fill="#AB71FF"/>
<rect x="108.467" y="65.676" width="2.32247" height="22.7086" rx="1.16123" transform="rotate(90 108.467 65.676)" fill="#AB71FF"/>
<rect x="108.467" y="70.5822" width="2.32247" height="22.7086" transform="rotate(90 108.467 70.5822)" fill="#AB71FF"/>
<rect x="108.467" y="75.2228" width="2.32247" height="22.7086" transform="rotate(90 108.467 75.2228)" fill="#AB71FF"/>
<rect x="107.949" y="80.131" width="2.32247" height="21.6764" rx="1.16123" transform="rotate(90 107.949 80.131)" fill="#AB71FF"/>
<rect x="106.402" y="84.7717" width="2.32247" height="18.0636" transform="rotate(90 106.402 84.7717)" fill="#AB71FF"/>
<rect x="103.305" y="89.6769" width="2.32247" height="11.6123" transform="rotate(90 103.305 89.6769)" fill="#AB71FF"/>
</svg>
