<svg width="60" height="60" viewBox="0 0 60 60" fill="none" xmlns="http://www.w3.org/2000/svg">
<circle cx="30" cy="30" r="30" fill="#7542E5"/>
<rect x="28.9004" y="5.49902" width="2.19959" height="5.01018" rx="1.0998" fill="#D9BFFF"/>
<rect x="28.9004" y="49.4912" width="2.19959" height="5.01018" rx="1.0998" fill="#D9BFFF"/>
<rect x="54.502" y="28.9004" width="2.19959" height="5.01018" rx="1.0998" transform="rotate(90 54.502 28.9004)" fill="#D9BFFF"/>
<rect x="10.5098" y="28.9004" width="2.19959" height="5.01018" rx="1.0998" transform="rotate(90 10.5098 28.9004)" fill="#D9BFFF"/>
<rect x="50.6699" y="16.7979" width="2.19959" height="5.01018" rx="1.0998" transform="rotate(60 50.6699 16.7979)" fill="#D9BFFF"/>
<rect x="12.5723" y="38.7939" width="2.19959" height="5.01018" rx="1.0998" transform="rotate(60 12.5723 38.7939)" fill="#D9BFFF"/>
<rect x="41.2988" y="8.23047" width="2.19959" height="5.01018" rx="1.0998" transform="rotate(30 41.2988 8.23047)" fill="#D9BFFF"/>
<rect x="19.3027" y="46.3281" width="2.19959" height="5.01018" rx="1.0998" transform="rotate(30 19.3027 46.3281)" fill="#D9BFFF"/>
<rect x="16.7988" y="9.33105" width="2.19959" height="5.01018" rx="1.0998" transform="rotate(-30 16.7988 9.33105)" fill="#D9BFFF"/>
<rect x="38.7949" y="47.4297" width="2.19959" height="5.01018" rx="1.0998" transform="rotate(-30 38.7949 47.4297)" fill="#D9BFFF"/>
<rect x="8.23242" y="18.7012" width="2.19959" height="5.01018" rx="1.0998" transform="rotate(-60 8.23242 18.7012)" fill="#D9BFFF"/>
<rect x="46.3301" y="40.6982" width="2.19959" height="5.01018" rx="1.0998" transform="rotate(-60 46.3301 40.6982)" fill="#D9BFFF"/>
<rect x="27.8008" y="32.2607" width="2.93279" height="16.1303" rx="1.46639" transform="rotate(-90 27.8008 32.2607)" fill="#D9BFFF"/>
<rect x="29.2676" y="13.1973" width="1.4664" height="20.5295" rx="0.733198" fill="#D9BFFF"/>
</svg>
