<svg width="1280" height="373" viewBox="0 0 1280 373" fill="none" xmlns="http://www.w3.org/2000/svg">
<mask id="mask0_279_38041" style="mask-type:alpha" maskUnits="userSpaceOnUse" x="0" y="0" width="1280" height="373">
<rect width="1280" height="373" fill="#F9F9FB"/>
</mask>
<g mask="url(#mask0_279_38041)">
<path d="M279.539 177.866L299.845 168.776C304.081 166.879 305.978 161.907 304.082 157.671C302.185 153.434 297.213 151.537 292.977 153.434L272.671 162.524C268.434 164.42 266.537 169.392 268.434 173.629C270.33 177.865 275.302 179.762 279.539 177.866Z" stroke="#9059FF"/>
<path d="M1013.7 283.51L1044.55 254.333C1050.99 248.245 1051.27 238.092 1045.18 231.656C1039.1 225.219 1028.94 224.935 1022.51 231.023L991.655 260.199C985.218 266.287 984.935 276.44 991.022 282.877C997.11 289.314 1007.26 289.597 1013.7 283.51Z" stroke="#FF298A"/>
<path d="M262.623 42.7787C266.833 75.1052 296.452 97.8979 328.779 93.6877C361.105 89.4775 383.898 59.8587 379.688 27.5322C375.478 -4.79423 345.859 -27.5869 313.532 -23.3767C281.206 -19.1665 258.413 10.4523 262.623 42.7787Z" stroke="#FF298A"/>
<path d="M937.212 31.6139C948.375 117.323 1026.9 177.755 1112.61 166.592C1198.32 155.429 1258.75 76.899 1247.59 -8.81008C1236.43 -94.5191 1157.9 -154.951 1072.19 -143.788C986.481 -132.625 926.049 -54.0951 937.212 31.6139Z" stroke="#9059FF"/>
<path d="M120.221 128.28L120.242 128.249C129.008 135.052 134.857 144.973 136.568 155.974C138.307 167.151 135.639 178.56 129.13 187.776L129.125 187.782L129.121 187.789L128.363 188.938C121.992 197.985 119.431 209.194 121.233 220.138C123.035 231.085 129.058 240.886 137.996 247.419C156.639 261.082 182.654 257.321 196.46 238.946C196.461 238.945 196.462 238.943 196.463 238.942L197.35 237.814L197.355 237.807C204.244 228.713 214.413 222.703 225.679 221.067C236.945 219.431 248.409 222.299 257.61 229.056C262.209 232.435 266.103 236.69 269.068 241.578C272.032 246.466 274.01 251.891 274.887 257.543C275.763 263.196 275.523 268.964 274.179 274.518C272.834 280.073 270.413 285.304 267.052 289.914C225.001 347.505 144.3 359.871 86.8599 317.599L86.8591 317.598C29.1603 275.308 16.509 194.382 58.5496 136.792L58.5497 136.792C65.2797 127.563 75.3572 121.369 86.6074 119.546C97.8551 117.723 109.374 120.415 118.68 127.042L119.241 127.467L119.791 127.923L120.221 128.28Z" stroke="#FF8A50"/>
</g>
<path d="M1249.88 248.254L1249.55 248.542L1249.2 248.821L1248.75 249.183L1248.77 249.203C1243.49 253.632 1236.68 255.987 1229.71 255.777C1222.55 255.56 1215.79 252.656 1210.88 247.686L1210.87 247.68L1210.86 247.675L1210.24 247.085C1205.34 242.151 1198.61 239.301 1191.51 239.148C1184.4 238.994 1177.49 241.55 1172.26 246.268C1161.34 256.105 1160.46 272.464 1170.31 283.026C1170.31 283.027 1170.31 283.028 1170.31 283.029L1170.9 283.694L1170.9 283.694L1170.91 283.7C1175.7 288.885 1178.18 295.696 1177.81 302.671C1177.44 309.646 1174.25 316.235 1168.93 321.021C1166.27 323.414 1163.15 325.282 1159.75 326.519C1156.34 327.755 1152.73 328.334 1149.11 328.223C1145.49 328.112 1141.94 327.313 1138.66 325.873C1135.37 324.432 1132.42 322.378 1129.98 319.829C1099.27 287.8 1101.52 237.498 1134.97 207.495L1134.97 207.494C1168.47 177.328 1220.5 178.866 1251.22 210.897L1251.22 210.897C1256.12 216.001 1258.72 222.778 1258.47 229.765C1258.22 236.749 1255.13 243.39 1249.88 248.254Z" stroke="#FF8A50"/>
</svg>
