<svg width="96" height="60" viewBox="0 0 96 60" fill="none" xmlns="http://www.w3.org/2000/svg">
<circle cx="66.1227" cy="29.2282" r="29.2282" fill="#AB71FF"/>
<circle cx="29.2282" cy="30.7711" r="29.2282" fill="#E7DFFF"/>
<circle cx="29.2282" cy="30.7711" r="28.4487" stroke="#E7DFFF" stroke-width="1.55885"/>
<circle cx="66.1227" cy="29.2282" r="28.4487" stroke="#AB71FF" stroke-width="1.55885"/>
<rect x="55.998" y="12.1279" width="2.32247" height="13.4187" transform="rotate(90 55.998 12.1279)" fill="#AB71FF"/>
<rect x="59.0957" y="17.0342" width="2.32247" height="19.612" transform="rotate(90 59.0957 17.0342)" fill="#AB71FF"/>
<rect x="60.6426" y="21.6758" width="2.32247" height="22.7086" rx="1.16123" transform="rotate(90 60.6426 21.6758)" fill="#AB71FF"/>
<rect x="60.6426" y="26.582" width="2.32247" height="22.7086" transform="rotate(90 60.6426 26.582)" fill="#AB71FF"/>
<rect x="60.6426" y="31.2227" width="2.32247" height="22.7086" transform="rotate(90 60.6426 31.2227)" fill="#AB71FF"/>
<rect x="60.125" y="36.1309" width="2.32247" height="21.6764" rx="1.16123" transform="rotate(90 60.125 36.1309)" fill="#AB71FF"/>
<rect x="58.5781" y="40.7715" width="2.32247" height="18.0636" transform="rotate(90 58.5781 40.7715)" fill="#AB71FF"/>
<rect x="55.4805" y="45.6768" width="2.32247" height="11.6123" transform="rotate(90 55.4805 45.6768)" fill="#AB71FF"/>
</svg>
